<svg width="22.500000" height="24.960938" viewBox="3.750000 -48.691406 22.500000 24.960938" xmlns="http://www.w3.org/2000/svg"><path d="M26.250000 -30.585938C26.210938 -30.078125 25.996094 -29.707031 25.605469 -29.472656L15.703125 -23.964844C15.507812 -23.808594 15.273438 -23.730469 15.000000 -23.730469C14.726562 -23.730469 14.492188 -23.808594 14.296875 -23.964844L4.394531 -29.472656C4.003906 -29.707031 3.789062 -30.078125 3.750000 -30.585938L3.750000 -41.835938C3.789062 -42.343750 4.003906 -42.714844 4.394531 -42.949219L14.296875 -48.457031C14.492188 -48.613281 14.726562 -48.691406 15.000000 -48.691406C15.273438 -48.691406 15.507812 -48.613281 15.703125 -48.457031L25.605469 -42.949219C25.996094 -42.714844 26.210938 -42.343750 26.250000 -41.835938ZM15.000000 -45.996094L7.558594 -41.835938L15.000000 -37.675781L22.441406 -41.835938ZM6.269531 -31.347656L13.769531 -27.070312L13.769531 -35.507812L6.269531 -39.726562ZM23.730469 -31.347656L23.730469 -39.726562L16.230469 -35.507812L16.230469 -27.070312ZM23.730469 -31.347656"></path></svg>