<svg width="19.863281" height="22.441406" viewBox="4.980469 -44.707031 19.863281 22.441406" xmlns="http://www.w3.org/2000/svg"><path d="M21.386719 -27.304688L15.644531 -33.046875L6.562500 -42.128906L4.980469 -40.488281L9.140625 -36.328125C8.671875 -35.429688 8.281250 -34.541016 7.968750 -33.662109C7.656250 -32.783203 7.500000 -31.953125 7.500000 -31.171875C7.539062 -29.062500 8.271484 -27.304688 9.697266 -25.898438C11.123047 -24.492188 12.890625 -23.750000 15.000000 -23.671875C15.937500 -23.671875 16.826172 -23.837891 17.666016 -24.169922C18.505859 -24.501953 19.257812 -24.960938 19.921875 -25.546875L23.261719 -22.265625L24.843750 -23.847656ZM22.500000 -31.171875C22.187500 -33.945312 20.937500 -36.826172 18.750000 -39.814453C16.562500 -42.802734 15.312500 -44.433594 15.000000 -44.707031L13.945312 -43.417969C13.281250 -42.597656 12.500000 -41.562500 11.601562 -40.312500L22.324219 -29.531250C22.441406 -30.078125 22.500000 -30.625000 22.500000 -31.171875ZM22.500000 -31.171875"></path></svg>