<?xml version="1.0" encoding="UTF-8" standalone="no"?>
<svg width="16px" height="20px" viewBox="0 0 16 20" version="1.1" xmlns="http://www.w3.org/2000/svg" xmlns:xlink="http://www.w3.org/1999/xlink" xmlns:sketch="http://www.bohemiancoding.com/sketch/ns">
    <!-- Generator: Sketch 3.1.1 (8761) - http://www.bohemiancoding.com/sketch -->
    <title>noun_110996_cc</title>
    <desc>Created with Sketch.</desc>
    <defs></defs>
    <g id="Page-1" stroke="none" stroke-width="1" fill="none" fill-rule="evenodd" sketch:type="MSPage">
        <g id="noun_110996_cc" sketch:type="MSLayerGroup" fill="#000000">
            <path d="M11.7401143,11.6744444 C11.4411429,11.6744444 11.1449143,11.7053333 10.8541714,11.7668889 L10.8086857,2.39222222 C10.5746286,1.08955556 9.40571429,0.0955555556 8,0.0955555556 C6.59428571,0.0955555556 5.42514286,1.08955556 5.19108571,2.39222222 L5.19108571,2.39222222 L5.1456,11.7668889 C4.85462857,11.7053333 4.5584,11.6744444 4.25965714,11.6744444 C1.92594286,11.6744444 0.0272,13.5208889 0.0272,15.7895556 C0.0272,18.0586667 1.92571429,19.9046667 4.25965714,19.9046667 C5.87862857,19.9046667 7.28845714,19.0162222 8,17.7146667 C8.71154286,19.0162222 10.1211429,19.9046667 11.7403429,19.9046667 C14.0738286,19.9046667 15.9728,18.0586667 15.9728,15.7895556 C15.9725714,13.5208889 14.0736,11.6744444 11.7401143,11.6744444 L11.7401143,11.6744444 Z M9.8032,2.39222222 L8.49211429,2.39222222 L8.49211429,1.11844444 C9.12777143,1.28755556 9.62925714,1.77444444 9.8032,2.39222222 L9.8032,2.39222222 Z M7.50765714,1.11844444 L7.50765714,2.39222222 L6.19634286,2.39222222 C6.37051429,1.77444444 6.872,1.28755556 7.50765714,1.11844444 L7.50765714,1.11844444 Z M11.7401143,18.9475556 C9.94902857,18.9475556 8.49188571,17.5308889 8.49188571,15.7895556 L7.50765714,15.7895556 C7.50765714,17.5308889 6.05051429,18.9475556 4.25965714,18.9475556 C2.4688,18.9475556 1.01165714,17.5308889 1.01165714,15.7895556 C1.01165714,14.0482222 2.4688,12.6315556 4.25965714,12.6315556 C4.66788571,12.6315556 5.0704,12.7071111 5.45622857,12.856 L6.12982857,13.116 L6.12982857,3.34911111 L9.86994286,3.34911111 L9.86994286,13.116 L10.5435429,12.856 C10.9293714,12.7071111 11.3318857,12.6315556 11.7401143,12.6315556 C13.5309714,12.6315556 14.9881143,14.0482222 14.9881143,15.7895556 C14.9881143,17.5308889 13.5309714,18.9475556 11.7401143,18.9475556 L11.7401143,18.9475556 Z" id="Shape" sketch:type="MSShapeGroup"></path>
        </g>
    </g>
</svg>