<?xml version="1.0" encoding="UTF-8" standalone="no"?>
<svg width="20px" height="20px" viewBox="0 0 20 20" version="1.1" xmlns="http://www.w3.org/2000/svg" xmlns:xlink="http://www.w3.org/1999/xlink" xmlns:sketch="http://www.bohemiancoding.com/sketch/ns">
    <!-- Generator: Sketch 3.1.1 (8761) - http://www.bohemiancoding.com/sketch -->
    <title>noun_693</title>
    <desc>Created with Sketch.</desc>
    <defs></defs>
    <g id="Page-1" stroke="none" stroke-width="1" fill="none" fill-rule="evenodd" sketch:type="MSPage">
        <g id="noun_693" sketch:type="MSLayerGroup" fill="#000000">
            <path d="M10.4188,1.70415385 L9.5,2.23218681 L9.9512,2.70321978 L10.8368,2.14846154 L10.4188,1.70415385 Z" id="Shape" sketch:type="MSShapeGroup"></path>
            <path d="M11.3338,2.67524176 L10.5106,3.28741758 L10.9784,3.77557143 L11.7708,3.13959341 L11.3338,2.67524176 Z" id="Shape" sketch:type="MSShapeGroup"></path>
            <path d="M12.1634,3.55467033 L11.469,4.28773626 L11.906,4.74415385 L12.6042,4.02298901 L12.1634,3.55467033 Z" id="Shape" sketch:type="MSShapeGroup"></path>
            <path d="M12.9968,4.44078022 L12.3966,5.25631868 L12.8644,5.74468132 L13.4354,4.90638462 L12.9968,4.44078022 Z" id="Shape" sketch:type="MSShapeGroup"></path>
            <path d="M13.9362,5.43734066 L13.4238,6.32867033 L13.8928,6.81828571 L14.3808,5.90962637 L13.9362,5.43734066 Z" id="Shape" sketch:type="MSShapeGroup"></path>
            <path d="M8.8792,2.59005495 L7.8966,3.15567033 L8.3962,3.67702198 L9.3482,3.07967033 L8.8792,2.59005495 Z" id="Shape" sketch:type="MSShapeGroup"></path>
            <path d="M9.9472,3.705 L9.0564,4.36624176 L9.5688,4.90116484 L10.4328,4.21194505 L9.9472,3.705 Z" id="Shape" sketch:type="MSShapeGroup"></path>
            <path d="M10.9884,4.79196703 L10.23,5.59163736 L10.657,6.03740659 L11.423,5.24567033 L10.9884,4.79196703 Z" id="Shape" sketch:type="MSShapeGroup"></path>
            <path d="M11.9788,5.82569231 L11.3186,6.72787912 L11.8308,7.26259341 L12.4642,6.33263736 L11.9788,5.82569231 Z" id="Shape" sketch:type="MSShapeGroup"></path>
            <path d="M13.063,6.95796703 L12.491,7.95181319 L12.9994,8.48256044 L13.5474,7.46345055 L13.063,6.95796703 Z" id="Shape" sketch:type="MSShapeGroup"></path>
            <path d="M7.2748,3.51207692 L6.5076,3.95387912 L7.0506,4.52053846 L7.7948,4.05493407 L7.2748,3.51207692 Z" id="Shape" sketch:type="MSShapeGroup"></path>
            <path d="M8.4946,4.78528571 L7.7986,5.30162637 L8.3492,5.87642857 L9.0232,5.33753846 L8.4946,4.78528571 Z" id="Shape" sketch:type="MSShapeGroup"></path>
            <path d="M9.751,6.09712088 L9.1584,6.7211978 L9.5752,7.15610989 L10.1728,6.53767033 L9.751,6.09712088 Z" id="Shape" sketch:type="MSShapeGroup"></path>
            <path d="M10.9004,7.29725275 L10.3844,8.00108791 L10.935,8.57568132 L11.4294,7.8492967 L10.9004,7.29725275 Z" id="Shape" sketch:type="MSShapeGroup"></path>
            <path d="M12.1292,8.57964835 L11.683,9.35676923 L12.226,9.92342857 L12.6542,9.12793407 L12.1292,8.57964835 Z" id="Shape" sketch:type="MSShapeGroup"></path>
            <path d="M17.3794,10.189011 L17.3772,1.49118681 C17.3776,1.48638462 17.378,1.48158242 17.3784,1.47657143 L17.3798,1.46446154 L17.3798,1.46195604 C17.4142,1.07924176 17.2918,0.683582418 17.0114,0.391065934 C16.512,-0.130285714 15.701,-0.130285714 15.2016,0.391065934 C15.1808,0.41278022 15.161,0.435956044 15.1418,0.458923077 L15.1392,0.456208791 L13.9206,1.72837363 C13.7622,1.56384615 13.5696,1.36257143 13.355,1.13478022 C12.8952,0.647043956 12.6676,0.531373626 12.1786,0.643703297 C11.6896,0.756241758 11.1016,1.31016484 11.1016,1.31016484 L12.7928,3.0757033 L13.0654,3.36028571 L14.758,5.12707692 C14.758,5.12707692 15.2886,4.51343956 15.3964,4.00273626 C15.504,3.49224176 15.3922,3.25338462 14.925,2.77337363 C14.7874,2.63202198 14.6598,2.49985714 14.5448,2.38001099 L14.9656,1.94050549 L15.7404,1.13164835 L15.7456,1.13686813 C15.7562,1.12267033 15.7672,1.10868132 15.78,1.09552747 C15.9522,0.915758242 16.2322,0.915758242 16.4044,1.09552747 C16.4824,1.17695604 16.5246,1.28176923 16.5318,1.38825275 L16.5318,1.46550549 L16.5318,10.189011 L10,10.189011 L0,10.189011 C0,10.189011 0.1202,10.6295604 1.2814,15.3010549 C1.7408,17.1490659 2.119,17.0941538 3.1034,17.1035495 L3.7864,17.1035495 L3.784,17.1091868 L3.7864,17.1091868 L3.4656,19.0847692 L4.4802,19.0847692 L4.884,17.1035495 L15.1156,17.1035495 L15.5194,19.0847692 L16.534,19.0847692 L16.2132,17.1091868 L16.2158,17.1091868 L16.2132,17.1035495 L16.8964,17.1035495 C17.8808,17.0941538 18.259,17.1490659 18.7184,15.3010549 C19.8796,10.6295604 20,10.189011 20,10.189011 L17.3794,10.189011 L17.3794,10.189011 Z" id="Shape" sketch:type="MSShapeGroup"></path>
        </g>
    </g>
</svg>