<svg xmlns="http://www.w3.org/2000/svg" xmlns:xlink="http://www.w3.org/1999/xlink" version="1.1" id="Layer_1" x="0px" y="0px" width="90px" height="90px" viewBox="4.5 -9.0 90.0 121.5" enable-background="new 0 0 90 90" xml:space="preserve">
<g>
	<path d="M61.363,52.535c-1.308,0-2.604,0.139-3.876,0.416l-0.199-42.186l0,0C56.264,4.903,51.15,0.43,45,0.43   S33.735,4.903,32.711,10.765l0,0l-0.199,42.186c-1.273-0.277-2.569-0.416-3.876-0.416c-10.21,0-18.517,8.309-18.517,18.518   c0,10.211,8.306,18.518,18.517,18.518c7.083,0,13.251-3.998,16.364-9.855c3.113,5.857,9.28,9.855,16.364,9.855   c10.209,0,18.517-8.307,18.517-18.518C79.88,60.844,71.572,52.535,61.363,52.535z M52.889,10.765h-5.736V5.033   C49.934,5.794,52.128,7.985,52.889,10.765z M42.846,5.033v5.732h-5.737C37.871,7.985,40.065,5.794,42.846,5.033z M61.363,85.264   c-7.836,0-14.211-6.375-14.211-14.211h-4.306c0,7.836-6.375,14.211-14.21,14.211s-14.21-6.375-14.21-14.211   s6.375-14.211,14.21-14.211c1.786,0,3.547,0.34,5.235,1.01l2.947,1.17V15.071h16.363v43.951l2.947-1.17   c1.688-0.67,3.449-1.01,5.235-1.01c7.835,0,14.21,6.375,14.21,14.211S69.198,85.264,61.363,85.264z"/>
</g>
<text x="0.0" y="105.75" font-size="4.5" font-weight="bold" font-family="Helvetica Neue, Helvetica, Arial-Unicode, Arial, Sans-serif" fill="#000000">Created by giulia ursenna dorati</text><text x="0.0" y="110.25" font-size="4.5" font-weight="bold" font-family="Helvetica Neue, Helvetica, Arial-Unicode, Arial, Sans-serif" fill="#000000">from the Noun Project</text></svg>