<?xml version="1.0" encoding="UTF-8" standalone="no"?>
<svg width="64px" height="90px" viewBox="0 0 64 90" version="1.1" xmlns="http://www.w3.org/2000/svg" xmlns:xlink="http://www.w3.org/1999/xlink" xmlns:sketch="http://www.bohemiancoding.com/sketch/ns">
    <!-- Generator: Sketch 3.1.1 (8761) - http://www.bohemiancoding.com/sketch -->
    <title>plug</title>
    <desc>Created with Sketch.</desc>
    <defs></defs>
    <g id="Page-1" stroke="none" stroke-width="1" fill="none" fill-rule="evenodd" sketch:type="MSPage">
        <g id="plug" sketch:type="MSLayerGroup" transform="translate(-18.000000, -5.000000)">
            <g id="Paint_1_"></g>
            <g id="Time"></g>
            <g id="Peg"></g>
            <g id="Peg_2"></g>
            <g id="Spray"></g>
            <g id="Service"></g>
            <g id="Green_Tea"></g>
            <g id="Dispenser"></g>
            <g id="Handheld_Vacuum"></g>
            <g id="Fan"></g>
            <g id="Glitter"></g>
            <g id="ID"></g>
            <g id="Security"></g>
            <g id="Security_2"></g>
            <g id="Work"></g>
            <g id="Calculator"></g>
            <g id="Workflow"></g>
            <g id="Crowd"></g>
            <g id="Apple"></g>
            <g id="Digital"></g>
            <g id="Umbrella"></g>
            <g id="Spade"></g>
            <g id="Cracked"></g>
            <g id="All_Weather"></g>
            <g id="Target"></g>
            <g id="Factory"></g>
            <g id="Plug" transform="translate(18.000000, 5.000000)"></g>
            <path d="M58.793,95 L61.476,86.8 C73.264,84.164 81.971,74.942 81.971,63.97 L81.971,34.921 L73.005,34.921 L73.005,9.892 C73.005,7.19 70.459,5 67.319,5 C64.181,5 61.635,7.19 61.635,9.892 L61.635,34.921 L38.902,34.921 L38.902,9.892 C38.902,7.19 36.356,5 33.217,5 C30.078,5 27.533,7.19 27.533,9.892 L27.533,34.921 L18.029,34.921 L18.029,63.97 C18.029,75.056 26.918,84.352 38.893,86.877 L41.033,95 L58.793,95 L58.793,95 Z" id="Shape" fill="#000000" sketch:type="MSShapeGroup"></path>
        </g>
    </g>
</svg>