<?xml version="1.0" encoding="UTF-8" standalone="no"?>
<svg width="16px" height="20px" viewBox="0 0 16 20" version="1.1" xmlns="http://www.w3.org/2000/svg" xmlns:xlink="http://www.w3.org/1999/xlink" xmlns:sketch="http://www.bohemiancoding.com/sketch/ns">
    <!-- Generator: Sketch 3.1.1 (8761) - http://www.bohemiancoding.com/sketch -->
    <title>Shape</title>
    <desc>Created with Sketch.</desc>
    <defs></defs>
    <g id="Page-1" stroke="none" stroke-width="1" fill="none" fill-rule="evenodd" sketch:type="MSPage">
        <path d="M9.59172872,20 L10.2211272,18.1777778 C12.9864458,17.592 15.029,15.5426667 15.029,13.1044444 L15.029,6.64911111 L12.9256876,6.64911111 L12.9256876,1.08711111 C12.9256876,0.486666667 12.3284276,0 11.5918226,0 C10.8556867,0 10.2584267,0.486666667 10.2584267,1.08711111 L10.2584267,6.64911111 L4.92554687,6.64911111 L4.92554687,1.08711111 C4.92554687,0.486666667 4.32828685,0 3.59191639,0 C2.85554593,0 2.2585205,0.486666667 2.2585205,1.08711111 L2.2585205,6.64911111 L0.029,6.64911111 L0.029,13.1044444 C0.029,15.568 2.11424913,17.6337778 4.92343558,18.1948889 L5.42545304,20 L9.59172872,20 L9.59172872,20 Z" id="Shape" fill="#000000" sketch:type="MSShapeGroup"></path>
    </g>
</svg>