<?xml version="1.0" encoding="UTF-8" standalone="no"?>
<svg width="20px" height="18px" viewBox="0 0 20 18" version="1.1" xmlns="http://www.w3.org/2000/svg" xmlns:xlink="http://www.w3.org/1999/xlink" xmlns:sketch="http://www.bohemiancoding.com/sketch/ns">
    <!-- Generator: Sketch 3.1.1 (8761) - http://www.bohemiancoding.com/sketch -->
    <title>Shape</title>
    <desc>Created with Sketch.</desc>
    <defs></defs>
    <g id="Page-1" stroke="none" stroke-width="1" fill="none" fill-rule="evenodd" sketch:type="MSPage">
        <path d="M9.99999972,13.4841079 C8.33999991,13.4841079 6.99999978,12.0942078 6.99999978,10.3723904 C6.99999978,9.21068298 7.6099999,8.19418893 8.49999975,7.66519676 L18.2099996,1.83591358 L12.68,11.7726633 C12.179999,12.7891577 11.1699993,13.4841079 9.99999972,13.4841079 L9.99999972,13.4841079 Z M9.99999972,0 C11.8100001,0 13.4999991,0.518619013 14.9699999,1.36915571 L12.8699991,2.62421452 C11.9999992,2.2715536 11.0000002,2.07447761 9.99999972,2.07447761 C5.57999974,2.07447761 2.00000002,5.78779437 2.00000002,10.3723904 C2.00000002,12.6646891 2.88999987,14.7391671 4.3399995,16.2327912 L4.34999953,16.2327912 C4.73999985,16.6373147 4.73999985,17.2907752 4.34999953,17.6952984 C3.95999987,18.0998216 3.3199998,18.0998216 2.92999981,17.7056708 C1.11999982,15.828268 1.42108547e-14,13.2351704 1.42108547e-14,10.3723904 C1.42108547e-14,4.64683099 4.48000007,0 9.99999972,0 L9.99999972,0 Z M20,10.3723904 C20,13.2351704 18.8799996,15.828268 17.0699993,17.7056708 C16.6799989,18.0998216 16.0500003,18.0998216 15.6599999,17.6952984 C15.2699996,17.2907752 15.2699996,16.6373147 15.6599999,16.2327912 C17.1099992,14.7287947 17.999999,12.6646891 17.999999,10.3723904 C17.999999,9.33515158 17.81,8.29791272 17.4599996,7.36439698 L18.6699991,5.1861948 C19.499999,6.74205413 20,8.48461561 20,10.3723904 L20,10.3723904 Z" id="Shape" fill="#000000" sketch:type="MSShapeGroup"></path>
    </g>
</svg>