<?xml version="1.0" encoding="UTF-8" standalone="no"?>
<svg width="15px" height="22px" viewBox="0 0 15 22" version="1.1" xmlns="http://www.w3.org/2000/svg" xmlns:xlink="http://www.w3.org/1999/xlink" xmlns:sketch="http://www.bohemiancoding.com/sketch/ns">
    <!-- Generator: Sketch 3.1.1 (8761) - http://www.bohemiancoding.com/sketch -->
    <title>Shape + Rectangle-1</title>
    <desc>Created with Sketch.</desc>
    <defs></defs>
    <g id="Page-1" stroke="none" stroke-width="1" fill="none" fill-rule="evenodd" sketch:type="MSPage">
        <g id="Shape-+-Rectangle-1" sketch:type="MSLayerGroup" transform="translate(-8.000000, -6.000000)">
            <path d="M19,12 L19,16 L20,16 L20,18 L17,18 L17,10 L19,10 L16,6 L13,10 L15,10 L15,18 L12,18 L12,15.93 C12.7,15.56 13.2,14.85 13.2,14 C13.2,12.78 12.21,11.8 11,11.8 C9.78,11.8 8.8,12.78 8.8,14 C8.8,14.85 9.3,15.56 10,15.93 L10,18 C10,19.1045695 10.8954305,20 12,20 L15,20 L15,23.05 C14.29,23.41 13.8,24.15 13.8,25 C13.8,26.2150264 14.7849736,27.2 16,27.2 C17.2150264,27.2 18.2,26.2150264 18.2,25 C18.2,24.15 17.71,23.41 17,23.05 L17,20 L20,20 C21.1045695,20 22,19.1045695 22,18 L22,16 L23,16 L23,12 L19,12 L19,12 Z" id="Shape" fill="#000000" sketch:type="MSShapeGroup"></path>
            <rect id="Rectangle-1" sketch:type="MSShapeGroup" x="0" y="0" width="32" height="32"></rect>
        </g>
    </g>
</svg>