<?xml version="1.0" encoding="UTF-8" standalone="no"?>
<svg width="19px" height="19px" viewBox="0 0 19 19" version="1.1" xmlns="http://www.w3.org/2000/svg" xmlns:xlink="http://www.w3.org/1999/xlink" xmlns:sketch="http://www.bohemiancoding.com/sketch/ns">
    <!-- Generator: Sketch 3.1.1 (8761) - http://www.bohemiancoding.com/sketch -->
    <title>Artboard 1</title>
    <desc>Created with Sketch.</desc>
    <defs></defs>
    <g id="Page-1" stroke="none" stroke-width="1" fill="none" fill-rule="evenodd" sketch:type="MSPage">
        <g id="Artboard-1" sketch:type="MSArtboardGroup" fill="#333333">
            <g id="ducha" sketch:type="MSLayerGroup" transform="translate(0.000000, 0.500000)">
                <path d="M9.89786,1.61446154 L9.025,2.1147033 L9.45364,2.56094505 L10.29496,2.03538462 L9.89786,1.61446154 Z" id="Shape" sketch:type="MSShapeGroup"></path>
                <path d="M10.76711,2.53443956 L9.98507,3.1143956 L10.42948,3.57685714 L11.18226,2.97435165 L10.76711,2.53443956 Z" id="Shape" sketch:type="MSShapeGroup"></path>
                <path d="M11.55523,3.36758242 L10.89555,4.06206593 L11.3107,4.49446154 L11.97399,3.81125275 L11.55523,3.36758242 Z" id="Shape" sketch:type="MSShapeGroup"></path>
                <path d="M12.34696,4.20705495 L11.77677,4.97967033 L12.22118,5.44232967 L12.76363,4.64815385 L12.34696,4.20705495 Z" id="Shape" sketch:type="MSShapeGroup"></path>
                <path d="M13.23939,5.15116484 L12.75261,5.99558242 L13.19816,6.45942857 L13.66176,5.59859341 L13.23939,5.15116484 Z" id="Shape" sketch:type="MSShapeGroup"></path>
                <path d="M8.43524,2.45373626 L7.50177,2.98958242 L7.97639,3.48349451 L8.88079,2.91758242 L8.43524,2.45373626 Z" id="Shape" sketch:type="MSShapeGroup"></path>
                <path d="M9.44984,3.51 L8.60358,4.13643956 L9.09036,4.64320879 L9.91116,3.99026374 L9.44984,3.51 Z" id="Shape" sketch:type="MSShapeGroup"></path>
                <path d="M10.43898,4.53975824 L9.7185,5.29734066 L10.12415,5.71964835 L10.85185,4.96958242 L10.43898,4.53975824 Z" id="Shape" sketch:type="MSShapeGroup"></path>
                <path d="M11.37986,5.51907692 L10.75267,6.37378022 L11.23926,6.88035165 L11.84099,5.99934066 L11.37986,5.51907692 Z" id="Shape" sketch:type="MSShapeGroup"></path>
                <path d="M12.40985,6.59175824 L11.86645,7.5332967 L12.34943,8.03610989 L12.87003,7.07063736 L12.40985,6.59175824 Z" id="Shape" sketch:type="MSShapeGroup"></path>
                <path d="M6.91106,3.32723077 L6.18222,3.74578022 L6.69807,4.28261538 L7.40506,3.84151648 L6.91106,3.32723077 Z" id="Shape" sketch:type="MSShapeGroup"></path>
                <path d="M8.06987,4.53342857 L7.40867,5.02259341 L7.93174,5.56714286 L8.57204,5.05661538 L8.06987,4.53342857 Z" id="Shape" sketch:type="MSShapeGroup"></path>
                <path d="M9.26345,5.77621978 L8.70048,6.36745055 L9.09644,6.77947253 L9.66416,6.19358242 L9.26345,5.77621978 Z" id="Shape" sketch:type="MSShapeGroup"></path>
                <path d="M10.35538,6.91318681 L9.86518,7.57997802 L10.38825,8.12432967 L10.85793,7.43617582 L10.35538,6.91318681 Z" id="Shape" sketch:type="MSShapeGroup"></path>
                <path d="M11.52274,8.12808791 L11.09885,8.86430769 L11.6147,9.40114286 L12.02149,8.64751648 L11.52274,8.12808791 Z" id="Shape" sketch:type="MSShapeGroup"></path>
                <path d="M16.51043,9.65274725 L16.50834,1.4127033 C16.50872,1.40815385 16.5091,1.4036044 16.50948,1.39885714 L16.51081,1.38738462 L16.51081,1.38501099 C16.54349,1.02243956 16.42721,0.647604396 16.16083,0.370483516 C15.6864,-0.123428571 14.91595,-0.123428571 14.44152,0.370483516 C14.42176,0.391054945 14.40295,0.413010989 14.38471,0.434769231 L14.38224,0.432197802 L13.22457,1.63740659 C13.07409,1.48153846 12.89112,1.29085714 12.68725,1.07505495 C12.25044,0.612989011 12.03422,0.503406593 11.56967,0.609824176 C11.10512,0.71643956 10.54652,1.24120879 10.54652,1.24120879 L12.15316,2.91382418 L12.41213,3.18342857 L14.0201,4.85723077 C14.0201,4.85723077 14.52417,4.27589011 14.62658,3.79206593 C14.7288,3.30843956 14.62259,3.08215385 14.17875,2.62740659 C14.04803,2.49349451 13.92681,2.36828571 13.81756,2.25474725 L14.21732,1.83837363 L14.95338,1.07208791 L14.95832,1.07703297 C14.96839,1.06358242 14.97884,1.05032967 14.991,1.03786813 C15.15459,0.86756044 15.42059,0.86756044 15.58418,1.03786813 C15.65828,1.11501099 15.69837,1.21430769 15.70521,1.31518681 L15.70521,1.38837363 L15.70521,9.65274725 L9.5,9.65274725 L0,9.65274725 C0,9.65274725 0.11419,10.0701099 1.21733,14.4957363 C1.65376,16.2464835 2.01305,16.1944615 2.94823,16.2033626 L3.59708,16.2033626 L3.5948,16.2087033 L3.59708,16.2087033 L3.29232,18.0803077 L4.25619,18.0803077 L4.6398,16.2033626 L14.35982,16.2033626 L14.74343,18.0803077 L15.7073,18.0803077 L15.40254,16.2087033 L15.40501,16.2087033 L15.40254,16.2033626 L16.05158,16.2033626 C16.98676,16.1944615 17.34605,16.2464835 17.78248,14.4957363 C18.88562,10.0701099 19,9.65274725 19,9.65274725 L16.51043,9.65274725 L16.51043,9.65274725 Z" id="Shape" sketch:type="MSShapeGroup"></path>
            </g>
        </g>
    </g>
</svg>