<?xml version="1.0" encoding="UTF-8" standalone="no"?>
<svg width="19px" height="19px" viewBox="0 0 19 19" version="1.1" xmlns="http://www.w3.org/2000/svg" xmlns:xlink="http://www.w3.org/1999/xlink" xmlns:sketch="http://www.bohemiancoding.com/sketch/ns">
    <!-- Generator: Sketch 3.1.1 (8761) - http://www.bohemiancoding.com/sketch -->
    <title>Artboard 1</title>
    <desc>Created with Sketch.</desc>
    <defs></defs>
    <g id="Page-1" stroke="none" stroke-width="1" fill="none" fill-rule="evenodd" sketch:type="MSPage">
        <g id="Artboard-1" sketch:type="MSArtboardGroup" fill="#333333">
            <g id="usb" sketch:type="MSLayerGroup" transform="translate(5.000000, 0.000000)">
                <path d="M4.50040941,0 L3.20136014,2.11052 L4.12784879,2.11052 L4.12784879,12.89891 L1.762703,10.79808 C1.61040349,10.61986 1.50293409,10.38578 1.49720238,10.14486 C1.49720238,9.17168 1.49658827,8.59389 1.49638357,8.3809 C1.93465405,8.23688 2.25071646,7.84947 2.25071646,7.38891 C2.25071646,6.80618 1.74653141,6.33289 1.12505118,6.33289 C0.503775645,6.33308 0,6.80618 0,7.38891 C0,7.84947 0.316062412,8.23688 0.753923486,8.3809 L0.753309375,10.12472 C0.753309375,10.59706 1.02945458,11.09239 1.35370514,11.40722 C1.34387936,11.39848 1.33343948,11.38974 1.35370514,11.4076 C1.36168858,11.41425 3.86275759,13.6363 3.86275759,13.6363 C4.01505709,13.81452 4.12191239,14.04822 4.12764409,14.28895 L4.12764409,15.50913 C3.26870764,15.6712 2.62123004,16.38294 2.62123004,17.23718 C2.62123004,18.21093 3.46215257,19 4.4997953,19 C5.53743802,19 6.37876996,18.21093 6.37876996,17.23718 C6.37876996,16.38294 5.73108766,15.6712 4.87092299,15.50913 L4.87092299,14.31004 L4.87092299,14.30092 L4.87092299,11.6489 C4.87706409,11.40893 4.9841241,11.17523 5.1364236,10.99701 C5.1364236,10.99701 7.63749261,8.77572 7.64609016,8.7685 C7.66574171,8.75064 7.65530182,8.75976 7.64609016,8.7685 C7.96972661,8.4531 8.24587181,7.95796 8.24587181,7.48524 L8.24566711,5.80526 L9,5.80526 L9,3.69417 L6.74989765,3.69417 L6.74989765,5.80545 L7.50341173,5.80545 C7.50341173,5.80545 7.5019788,6.24777 7.5019788,7.50595 C7.4964518,7.74649 7.3893918,7.98095 7.23647819,8.15936 L4.87092299,10.26038 L4.87092299,2.11052 L5.79925397,2.11052 L4.50040941,0 L4.50040941,0 Z" id="path1334_1_" sketch:type="MSShapeGroup"></path>
            </g>
        </g>
    </g>
</svg>